<svg width="512" height="512" viewBox="0 0 512 512" fill="none" xmlns="http://www.w3.org/2000/svg">
  <!-- Background -->
  <rect width="512" height="512" rx="96" fill="#F97316"/>
  
  <!-- Wrench Icon -->
  <path d="M356.5 155.5C334.3 133.3 302.8 124.1 272.5 129.8L208.5 193.8C202.8 224.1 212 255.6 234.2 277.8C256.4 300 287.9 309.2 318.2 303.5L382.2 239.5C387.9 209.2 378.7 177.7 356.5 155.5Z" stroke="white" stroke-width="28" stroke-linecap="round" stroke-linejoin="round"/>
  
  <path d="M224 288L144 368" stroke="white" stroke-width="28" stroke-linecap="round" stroke-linejoin="round"/>
  
  <path d="M272.5 129.8L208.5 65.8C200.5 57.8 188.5 54.3 177 57.3L129 69.3L141 117C144 128.5 140.5 140.5 132.5 148.5L68.5 212.5" stroke="white" stroke-width="28" stroke-linecap="round" stroke-linejoin="round"/>
  
  <!-- SBS Text -->
  <text x="256" y="440" font-family="Arial, sans-serif" font-size="100" font-weight="bold" fill="white" text-anchor="middle">SBS</text>
</svg>
